#!OML:ASF I:\Actors\actors\Patient Classification 1\Patient 1\Session 1\Subject1.ASF
:FULLY-SPECIFIED
:DEGREES
381
root 0.209603 17.6563 8.03067 12.7451 -35.7151 -6.49186
lowerback 2.77643 -6.4063 0.373865
upperback -8.5919 -8.32467 5.42291
thorax -9.92753 -3.91239 6.5196
lowerneck -19.8486 -5.23009 -5.04246
upperneck 16.2349 -6.04206 1.61863
head 8.52246 -3.00228 0.571211
rclavicle 2.34566e-014 2.22639e-014
rhumerus 46.4088 32.501 -16.803
rradius 55.9718
rwrist -42.3922
rhand 5.24955 -48.844
rfingers 7.12502
rthumb 30.608 283.681
lclavicle 2.34566e-014 2.22639e-014
lhumerus 58.7779 -20.0771 73.5966
lradius 38.8042
lwrist 22.3367
lhand -46.0312 -23.9678
lfingers 7.12502
lthumb -18.7757 5.14609
rfemur -17.7701 29.6958 13.2339
rtibia 7.53519
rfoot -6.32996 -0.635632
rtoes -11.7796
lfemur 8.79534 -34.3169 -24.449
ltibia -4.80024
lfoot -63.0535 59.4875
ltoes 39.0214
382
root 0.223707 17.674 8.05436 13.3347 -36.7142 -6.54537
lowerback 3.05743 -6.45159 0.142719
upperback -8.85883 -8.37893 5.79837
thorax -10.3035 -3.89072 7.13209
lowerneck -20.5927 -5.2631 -5.03499
upperneck 16.3096 -6.03998 1.59994
head 8.67516 -2.99468 0.54638
rclavicle -1.12313e-013 5.64548e-014
rhumerus 43.6006 31.1453 -19.2095
rradius 59.3653
rwrist -43.3282
rhand 4.39782 -51.3871
rfingers 7.12502
rthumb 29.7954 280.989
lclavicle -1.12313e-013 5.64548e-014
lhumerus 60.6386 -19.4603 76.0946
lradius 39.8795
lwrist 21.5635
lhand -46.7303 -32.2083
lfingers 7.12502
lthumb -19.4479 -3.16091
rfemur -18.5429 30.3517 12.6683
rtibia 7.32542
rfoot -6.0744 -0.516412
rtoes -11.535
lfemur 8.34597 -34.3009 -24.42
ltibia -4.89781
lfoot -64.7497 59.5739
ltoes 39.6876
383
root 0.233784 17.69 8.08575 13.9324 -37.4207 -6.80966
lowerback 3.12587 -6.67108 0.411631
upperback -9.00342 -8.6373 6.08026
thorax -10.4788 -4.02213 7.34801
lowerneck -21.3305 -5.10815 -4.54372
upperneck 16.3446 -5.84609 1.19058
head 8.7781 -2.91001 0.340187
rclavicle -5.14852e-014 -5.96354e-014
rhumerus 40.069 28.1359 -24.056
rradius 63.6739
rwrist -47.0654
rhand -0.396773 -52.8207
rfingers 7.12502
rthumb 25.2103 278.824
lclavicle -5.14852e-014 -5.96354e-014
lhumerus 61.629 -18.9246 79.2748
lradius 40.3064
lwrist 23.076
lhand -42.7989 -43.0706
lfingers 7.12502
lthumb -15.6647 -13.6848
rfemur -19.0238 30.7672 12.4508
rtibia 7.0386
rfoot -5.82111 -0.362992
rtoes -11.6282
lfemur 8.10003 -34.5404 -24.2926
ltibia -4.9906
lfoot -66.5068 59.5374
ltoes 40.5245
384
root 0.239688 17.7019 8.1265 14.3445 -37.8791 -6.98127
lowerback 3.0416 -7.0055 0.80064
upperback -9.14891 -9.04496 6.36119
thorax -10.5663 -4.24172 7.48976
lowerneck -21.8199 -4.68412 -3.76544
upperneck 16.3139 -5.28832 0.283398
head 8.78603 -2.69641 -0.0232783
rclavicle -5.69518e-014 -7.07673e-014
rhumerus 36.6123 23.6917 -29.6917
rradius 69.7895
rwrist -46.9926
rhand -1.9189 -57.4162
rfingers 7.12502
rthumb 23.7512 274.032
lclavicle -5.69518e-014 -7.07673e-014
lhumerus 61.6732 -18.7397 82.5492
lradius 40.705
lwrist 25.5297
lhand -42.4166 -37.4652
lfingers 7.12502
lthumb -15.2965 -8.05086
rfemur -19.1969 30.8124 12.3296
rtibia 6.69807
rfoot -5.65333 -0.107851
rtoes -11.8897
lfemur 7.9909 -34.7977 -24.3166
ltibia -5.00869
lfoot -67.8642 59.4252
ltoes 41.0832
385
root 0.245554 17.7039 8.17587 14.6594 -37.9697 -7.4123
lowerback 2.90298 -7.40727 1.76944
upperback -9.23852 -9.49549 6.62209
thorax -10.6571 -4.53082 7.2926
lowerneck -22.1026 -4.13546 -3.10676
upperneck 16.3452 -4.53431 -0.657714
head 8.79083 -2.40627 -0.349335
rclavicle -6.37105e-014 -3.10104e-014
rhumerus 35.478 19.5492 -34.35
rradius 74.4805
rwrist -43.4807
rhand -0.346925 -61.8023
rfingers 7.12502
rthumb 25.258 450.15
lclavicle -6.37105e-014 -3.10104e-014
lhumerus 61.2017 -18.7859 85.9357
lradius 38.589
lwrist 27.2513
lhand -43.0448 -35.0172
lfingers 7.12502
lthumb -15.9015 -5.65001
rfemur -18.8246 30.642 12.7512
rtibia 6.27764
rfoot -5.61654 0.16588
rtoes -11.9055
lfemur 8.26246 -34.8951 -24.2619
ltibia -5.11182
lfoot -68.3168 59.4142
ltoes 41.1331
386
root 0.248312 17.6937 8.22682 15.0444 -37.6838 -8.35704
lowerback 2.81464 -7.83434 3.34249
upperback -9.29546 -9.92525 6.8901
thorax -10.867 -4.85337 6.80146
lowerneck -22.2486 -3.5542 -2.42985
upperneck 16.5519 -3.74394 -1.63532
head 8.84518 -2.1055 -0.687197
rclavicle 1.94809e-014 -2.14687e-014
rhumerus 34.09 15.6683 -38.8183
rradius 80.1041
rwrist -36.4916
rhand -0.948411 -59.1049
rfingers 7.12502
rthumb 24.6817 272.467
lclavicle 1.94809e-014 -2.14687e-014
lhumerus 60.4619 -18.8569 89.2189
lradius 35.1739
lwrist 28.4613
lhand -42.7867 -24.9498
lfingers 7.12502
lthumb -15.6529 4.43696
rfemur -18.044 30.5283 13.905
rtibia 5.90703
rfoot -5.70804 0.270116
rtoes -11.608
lfemur 8.78023 -34.5198 -23.7164
ltibia -5.29768
lfoot -67.2698 59.4741
ltoes 40.7277
